<?xml version="1.0" encoding="UTF-8"?>
<svg id="Capa_2" data-name="Capa 2" xmlns="http://www.w3.org/2000/svg" viewBox="0 0 2053.78 1103.15">
  <g id="Capa_1-2" data-name="Capa 1">
    <g>
      <path d="M374.69,1103.15l-17.55-20.18c-.89-1.02-89.99-103.86-177.75-240.84-51.73-80.74-93-157.52-122.67-228.22C19.08,524.21,0,443.73,0,374.7,0,274.61,38.98,180.52,109.75,109.75,180.52,38.98,274.61,0,374.69,0s194.18,38.98,264.95,109.75c70.77,70.77,109.75,164.87,109.75,264.95,0,69.03-19.08,149.52-56.72,239.22-29.67,70.7-70.94,147.48-122.67,228.22-87.76,136.97-176.86,239.81-177.75,240.84l-17.55,20.18Zm0-1056.61c-87.65,0-170.06,34.14-232.04,96.12-61.98,61.98-96.12,144.39-96.12,232.04,0,62.82,17.87,137.24,53.1,221.21,28.63,68.23,68.65,142.63,118.94,221.12,62.91,98.19,126.31,178.22,156.12,214.46,29.88-36.33,93.51-116.67,156.46-214.99,50.21-78.41,90.15-152.73,118.73-220.9,35.15-83.85,52.97-158.17,52.97-220.92,0-87.65-34.14-170.06-96.12-232.04-61.98-61.98-144.39-96.12-232.04-96.12Z"/>
      <path d="M376.12,109.43c-.49,0-.98,0-1.47,0-74.11,0-143.88,28.68-196.59,80.86-53.06,52.52-82.49,122.56-82.87,197.22-.38,74.66,28.34,144.99,80.86,198.05,52.52,53.06,122.56,82.49,197.22,82.87,.49,0,.97,0,1.46,0,74.11,0,143.88-28.69,196.59-80.86,53.06-52.52,82.49-122.56,82.87-197.22,.38-74.66-28.33-144.99-80.86-198.05-52.52-53.06-122.56-82.49-197.22-82.87Zm-5.35,12.56l8.81,.04-.19,36.93-8.81-.04,.19-36.93Zm3.91,49.76c.37,0,.75,0,1.12,0,93.08,.47,175.43,60.07,204.92,148.29,1.47,4.41,1.08,9.08-1.11,13.16-2.17,4.04-5.79,6.92-10.2,8.11-18.76,5.07-39.7,9.48-62.22,13.12-19.41,2.51-39.19,4.82-58.78,6.85-3.34,.35-6.67-1.52-8.22-4.65-12.34-24.98-37.29-40.59-65.12-40.73-.13,0-.25,0-.38,0-27.78,0-52.76,15.41-65.25,40.28-1.58,3.13-4.88,4.98-8.26,4.6-20.36-2.3-40.85-4.89-60.91-7.7-21.6-3.72-41.75-8.14-59.9-13.15-4.41-1.22-8.02-4.12-10.16-8.18-2.17-4.1-2.53-8.78-1.03-13.18,30.09-87.94,112.58-146.82,205.51-146.82Zm158.8,209.18c.29,1.34,.37,2.67,.29,4.12-.13,1.25-.45,2.71-.95,3.94-.52,1.25-1.2,2.41-2.01,3.41-.82,.98-1.71,1.85-2.68,2.51-.94,.7-1.94,1.17-2.88,1.55-.95,.36-1.85,.57-2.65,.69-.4,.04-.78,.09-1.13,.12-.35,0-.67,0-.96,.01-.58,.03-1.03-.08-1.33-.1-.3-.03-.47-.05-.47-.05,0,0,.16,0,.47-.03,.31-.03,.76,0,1.32-.1,.28-.04,.59-.08,.93-.13,.33-.08,.68-.16,1.07-.25,.75-.22,1.57-.53,2.43-.93,.84-.44,1.73-.96,2.56-1.65,.86-.66,1.61-1.51,2.33-2.43,.71-.93,1.25-2.01,1.71-3.13,.44-1.16,.67-2.27,.81-3.62,.07-1.16,.03-2.46-.22-3.64-.28-1.18-.63-2.34-1.18-3.37-.12-.23-.26-.44-.39-.66-.56-.83-1.17-1.62-1.9-2.28-.9-.78-1.87-1.46-2.9-1.95-1.05-.48-2.08-.86-3.2-1.03-.56-.13-1.05-.13-1.55-.18-.57-.03-1.06,0-1.58,.02-2.04,.18-3.88,.85-5.36,1.77-1.47,.94-2.62,2.05-3.44,3.18-.83,1.13-1.33,2.24-1.67,3.17-.04,.1-.07,.19-.1,.29-12.73,1.26-22.46,2.06-30.36,3.27,.22,.51,.41,1.03,.54,1.58,.2,.94,.26,1.85,.21,2.89-.09,.83-.32,1.88-.67,2.74-.36,.87-.85,1.68-1.42,2.37-.57,.68-1.21,1.28-1.89,1.72-.66,.48-1.36,.79-2.02,1.04-.66,.24-1.28,.37-1.84,.44-.56,.07-1.05,.08-1.44,.05-.4,0-.71-.08-.91-.1-.21-.03-.32-.05-.32-.05,0,0,.11-.01,.32-.03,.21-.03,.51-.03,.89-.11,.38-.05,.83-.16,1.34-.31,.5-.16,1.05-.38,1.62-.66,.56-.31,1.14-.67,1.69-1.14,.56-.45,1.06-1.03,1.53-1.64,.47-.62,.81-1.35,1.12-2.09,.29-.78,.43-1.48,.53-2.42,.04-.74,.02-1.62-.14-2.4-.19-.78-.41-1.55-.77-2.25-.37-.68-.76-1.33-1.24-1.87-.46-.55-.98-1.01-1.48-1.4-.11-.08-.21-.14-.32-.21-.07-.04-.14-.09-.21-.12-.74-.33-1.46-.56-2.25-.66-.41-.08-.72-.07-1.06-.09-.41,0-.74,.02-1.1,.05-1.4,.17-2.64,.65-3.64,1.29-2.01,1.31-2.98,3.1-3.41,4.34-.22,.63-.32,1.16-.36,1.51-.04,.36-.06,.54-.06,.54,0,0,.03-.19,.08-.54,.06-.35,.16-.87,.41-1.49,.24-.61,.59-1.36,1.21-2.05,.6-.69,1.39-1.39,2.41-1.85,1-.47,2.19-.73,3.41-.65,.3,.02,.64,.06,.9,.11,.32,.08,.69,.14,.95,.25,.56,.17,1.15,.49,1.68,.81,1.06,.7,1.93,1.7,2.51,2.84,.27,.58,.46,1.19,.6,1.82,.13,.6,.13,1.34,.1,1.85-.09,.85-.18,1.29-.41,1.93-.24,.59-.54,1.16-.9,1.69-.75,1.04-1.77,1.88-2.93,2.4-1.17,.51-2.42,.72-3.69,.58-1.17-.12-2.33-.57-3.24-1.19-.93-.62-1.6-1.43-2.07-2.21-.5-.78-.73-1.57-.86-2.21-.14-.65-.16-1.18-.16-1.53,0-.36,0-.55,0-.55,0,0,0,.19-.03,.55,0,.23,0,.56,.04,.92-6.55,2.93-12,7.41-18.16,14.78,0,0,1.62-6.6,1.83-15.73,.21-9.13-1.67-14.26-1.67-14.26,58.88-4.42,99-12.8,114.7-16.11,19.97-4.21,25.88-11.1,25.88-11.1,0,0-18.14,25.37-52.17,31.89,.6,1.08,1.06,2.27,1.35,3.53Zm-15.84,13.71c-1.79-.26-3.5-.98-4.85-1.94-1.37-.96-2.35-2.19-3.05-3.36-.72-1.18-1.06-2.35-1.26-3.31-.1-.48-.17-.92-.18-1.31-.04-.38-.06-.71-.04-.98,0-.5,.02-.77,.02-.8h0s0-.03,0-.03c0-.03,.04-.3,.11-.79,.03-.26,.1-.59,.2-.96,.08-.38,.22-.79,.39-1.26,.35-.92,.87-2.02,1.77-3.07,.88-1.04,2.05-2.1,3.55-2.82,1.5-.73,3.27-1.16,5.13-1.13,.45,.02,.96,.06,1.38,.12,.49,.1,1.02,.17,1.44,.32,.89,.23,1.81,.67,2.64,1.17,1.67,1.04,3.07,2.57,4,4.34,.45,.9,.76,1.86,.99,2.84,.2,.96,.22,2.07,.17,2.95-.13,1.22-.3,2.02-.66,3.01-.38,.93-.86,1.83-1.44,2.64-1.21,1.6-2.83,2.88-4.65,3.64-1.83,.75-3.78,.97-5.67,.7Zm-88.43-1.25c.59,.65,1.28,1.03,1.79,1.2,.51,.17,.84,.22,.84,.22,0,0-.08,0-.23,.02-.15,.02-.37,.03-.66,0-.56-.06-1.43-.24-2.25-.89-.82-.62-1.58-1.73-1.71-3.09,0-.18-.04-.32-.03-.53,0-.16,0-.28,.02-.48,.04-.38,.11-.72,.24-1.06,.24-.68,.63-1.31,1.15-1.83,.53-.51,1.17-.9,1.85-1.13,.67-.24,1.42-.28,2.05-.21,1.39,.15,2.47,.91,3.09,1.75,.64,.83,.81,1.7,.87,2.26,.01,.29,0,.51-.02,.66-.02,.15-.02,.23-.02,.23,0,0-.05-.32-.21-.84-.16-.52-.54-1.21-1.18-1.8-.63-.59-1.58-1.06-2.59-1.09-.55-.03-1.05,.08-1.55,.25-.5,.19-.96,.49-1.34,.86-.39,.38-.68,.83-.88,1.33-.1,.24-.16,.51-.21,.74-.03,.1-.03,.29-.05,.43-.02,.1,0,.25,0,.37,.02,1.04,.48,1.98,1.06,2.62Zm-18.1,39.54c.59,.65,1.27,1.03,1.79,1.2,.51,.17,.84,.22,.84,.22,0,0-.08,0-.23,.02-.15,.02-.37,.03-.66,.01-.56-.07-1.43-.24-2.25-.89-.82-.62-1.57-1.73-1.71-3.09,0-.18-.04-.32-.03-.53,0-.16,0-.28,.02-.48,.04-.38,.11-.72,.24-1.06,.24-.68,.63-1.31,1.15-1.84,.53-.51,1.17-.9,1.85-1.13,.67-.24,1.42-.29,2.05-.21,1.39,.15,2.48,.92,3.1,1.75,.64,.83,.81,1.7,.86,2.26,.02,.29,0,.51-.02,.66-.02,.15-.03,.23-.03,.23,0,0-.04-.32-.21-.84-.16-.52-.54-1.21-1.18-1.8-.63-.59-1.59-1.05-2.59-1.09-.55-.03-1.05,.08-1.56,.25-.5,.18-.96,.48-1.34,.86-.39,.38-.69,.83-.88,1.33-.1,.24-.17,.51-.21,.74-.03,.1-.04,.29-.05,.43-.02,.1,0,.25,0,.37,.02,1.04,.48,1.97,1.06,2.62Zm-39.84,17.6c.59,.65,1.28,1.03,1.79,1.2,.51,.17,.84,.22,.84,.22,0,0-.08,0-.23,.02-.15,.02-.37,.03-.66,.01-.56-.06-1.43-.24-2.25-.89-.82-.62-1.58-1.73-1.71-3.09,0-.17-.04-.32-.03-.53,0-.16,0-.28,.02-.48,.04-.38,.11-.72,.24-1.06,.24-.68,.64-1.31,1.15-1.84,.53-.51,1.17-.9,1.85-1.13,.67-.24,1.42-.28,2.05-.21,1.39,.15,2.47,.92,3.09,1.75,.65,.83,.81,1.7,.87,2.26,.01,.29,0,.51-.02,.66-.02,.15-.02,.23-.02,.23,0,0-.05-.33-.21-.84-.16-.52-.54-1.21-1.18-1.8-.63-.59-1.59-1.06-2.59-1.08-.55-.03-1.05,.08-1.56,.25-.5,.18-.96,.48-1.34,.86-.39,.38-.69,.83-.88,1.33-.1,.24-.16,.51-.21,.74-.03,.1-.03,.29-.05,.43-.02,.1,0,.25,0,.37,.02,1.04,.48,1.97,1.06,2.62Zm-85.21-69.56c-.5-.63-1.14-1.25-1.96-1.8-.99-.65-2.23-1.15-3.63-1.33-.36-.03-.68-.06-1.1-.06-.34,.02-.66,0-1.06,.08-.79,.1-1.51,.32-2.26,.64-.07,.03-.14,.08-.21,.12-.11,.07-.22,.14-.33,.21-.51,.39-1.03,.84-1.5,1.39-.49,.53-.88,1.18-1.26,1.85-.37,.68-.6,1.45-.79,2.24-.17,.78-.2,1.65-.16,2.4,.09,.94,.23,1.64,.51,2.42,.3,.75,.64,1.48,1.1,2.1,.46,.62,.95,1.21,1.51,1.66,.54,.48,1.12,.84,1.68,1.16,.57,.29,1.11,.51,1.61,.68,.51,.15,.96,.26,1.34,.32,.38,.08,.68,.09,.89,.11,.21,.02,.32,.03,.32,.03,0,0-.11,.02-.32,.05-.21,.02-.52,.11-.91,.09-.4,.02-.88,.01-1.44-.06-.56-.08-1.18-.22-1.84-.46-.65-.26-1.35-.58-2-1.06-.68-.45-1.3-1.05-1.87-1.74-.56-.7-1.04-1.5-1.39-2.38-.34-.86-.56-1.91-.64-2.75-.05-1.03,.02-1.95,.24-2.88,.1-.41,.24-.81,.39-1.19-7.99,.19-17.82-.59-29.91-3.02-.07-.37-.19-.78-.34-1.24-.33-.93-.82-2.05-1.64-3.19-.81-1.13-1.95-2.26-3.41-3.22-1.47-.93-3.3-1.62-5.34-1.82-.52-.04-1.01-.06-1.58-.04-.51,.04-.99,.04-1.55,.16-1.12,.16-2.16,.53-3.21,1-1.04,.48-2.01,1.15-2.92,1.92-.73,.65-1.35,1.43-1.92,2.26-.13,.22-.27,.43-.4,.66-.56,1.03-.93,2.18-1.22,3.36-.26,1.18-.31,2.47-.26,3.63,.13,1.35,.35,2.46,.77,3.63,.46,1.13,.98,2.21,1.68,3.15,.71,.92,1.45,1.78,2.3,2.45,.82,.7,1.7,1.23,2.54,1.68,.86,.41,1.67,.73,2.42,.95,.38,.09,.73,.18,1.06,.26,.33,.05,.65,.1,.92,.14,.56,.1,1.01,.09,1.31,.12,.31,.02,.47,.03,.47,.03,0,0-.16,.02-.47,.05-.31,.01-.76,.12-1.34,.08-.29,0-.61-.01-.96-.02-.35-.04-.73-.08-1.13-.13-.8-.13-1.7-.36-2.65-.72-.93-.39-1.93-.88-2.86-1.58-.97-.66-1.85-1.54-2.66-2.54-.8-1.01-1.47-2.17-1.97-3.42-.49-1.24-.78-2.7-.91-3.95-.06-1.45,.03-2.78,.33-4.11,.23-.93,.58-1.82,.98-2.66-39.32-2.24-61.81,11.14-61.81,11.14,0,0,.21-18.14,5.28-48.54,0,0,3.57,10.5,19.29,13.73,15.72,3.23,64,13.98,122.83,19,0,0-3.92,5.86-16.67,8.95Zm1.82,5.18c0,.36-.03,.88-.17,1.53-.14,.64-.38,1.43-.89,2.2-.49,.77-1.16,1.58-2.1,2.19-.91,.61-2.08,1.05-3.25,1.16-1.27,.12-2.52-.09-3.68-.62-1.16-.53-2.17-1.38-2.91-2.42-.36-.54-.65-1.11-.88-1.7-.22-.65-.31-1.09-.39-1.94-.03-.51-.01-1.25,.11-1.85,.15-.62,.35-1.23,.63-1.81,.59-1.13,1.47-2.13,2.54-2.82,.53-.32,1.13-.64,1.69-.8,.26-.11,.63-.16,.95-.24,.26-.05,.6-.08,.89-.1,1.23-.06,2.41,.21,3.41,.69,1.01,.47,1.79,1.18,2.39,1.87,.61,.69,.95,1.44,1.19,2.06,.24,.62,.34,1.14,.39,1.49,.05,.35,.07,.54,.07,.54,0,0,0,.19,0,.55Zm-46.53-3.74c.02,.27-.01,.59-.05,.98-.02,.39-.09,.82-.2,1.3-.21,.96-.56,2.13-1.29,3.3-.71,1.17-1.7,2.39-3.08,3.33-1.35,.94-3.08,1.64-4.87,1.89-1.89,.24-3.84,0-5.66-.76-1.81-.78-3.42-2.07-4.61-3.69-.58-.82-1.04-1.72-1.42-2.66-.35-.99-.51-1.8-.63-3.02-.04-.88,0-1.99,.2-2.95,.24-.98,.56-1.94,1.02-2.83,.95-1.77,2.36-3.28,4.04-4.31,.84-.49,1.76-.92,2.65-1.14,.42-.15,.96-.21,1.44-.31,.42-.06,.93-.09,1.38-.11,1.86-.01,3.63,.44,5.11,1.18,1.5,.74,2.65,1.81,3.52,2.86,.89,1.05,1.4,2.16,1.74,3.08,.17,.47,.31,.89,.38,1.26,.09,.37,.16,.69,.19,.96,.07,.53,.11,.81,.11,.81,0,0,0,.28,0,.81Zm-70.52,42.02c5.48-7.59,13.99-12.12,23.34-12.42,14.13-.47,27.3-.66,39.43-.66,28.39,0,51.06,1.06,66.76,2.13,3.37,.23,6.34,2.32,7.76,5.45h0c7.66,16.98,21.71,30.5,38.86,37.56,.64,23.64,.17,69.08-8.41,127.75-.72,4.9-3.51,9.27-7.65,11.98-4.14,2.71-9.03,3.48-13.76,2.18-71.9-19.7-129.68-76.39-150.78-147.93-2.65-8.97-1.02-18.46,4.45-26.05Zm142.28-31.63c.59,.65,1.27,1.03,1.79,1.2,.51,.17,.84,.22,.84,.22,0,0-.08,0-.23,.02-.15,.02-.37,.03-.66,.01-.56-.06-1.43-.24-2.25-.89-.82-.62-1.58-1.74-1.71-3.1,0-.17-.04-.32-.03-.53,0-.16,0-.28,.02-.48,.04-.38,.11-.72,.23-1.06,.24-.68,.64-1.31,1.15-1.83,.53-.51,1.17-.9,1.85-1.13,.67-.24,1.42-.28,2.05-.21,1.39,.16,2.48,.92,3.1,1.75,.64,.83,.81,1.7,.86,2.26,.02,.29,0,.51-.02,.66-.02,.15-.03,.23-.03,.23,0,0-.04-.33-.21-.84-.16-.52-.54-1.21-1.18-1.8-.63-.59-1.59-1.06-2.59-1.09-.55-.03-1.05,.08-1.56,.25-.5,.18-.96,.48-1.34,.86-.38,.37-.69,.83-.88,1.33-.1,.25-.16,.51-.21,.74-.03,.1-.04,.29-.05,.43-.02,.1,0,.25,0,.37,.02,1.04,.47,1.97,1.06,2.62Zm17.49-37.88c.59,.64,1.28,1.02,1.79,1.19,.51,.17,.84,.21,.84,.21,0,0-.08,0-.23,.02-.15,.02-.37,.03-.66,.01-.56-.06-1.43-.23-2.25-.87-.82-.61-1.58-1.72-1.72-3.08,0-.17-.04-.32-.03-.52,0-.16,0-.28,.02-.48,.04-.38,.11-.72,.24-1.06,.24-.67,.64-1.3,1.15-1.82,.53-.51,1.17-.88,1.84-1.11,.67-.24,1.41-.28,2.05-.21,1.38,.15,2.46,.9,3.09,1.73,.65,.82,.81,1.69,.87,2.25,.02,.29,0,.51-.02,.66-.02,.15-.03,.23-.03,.23,0,0-.04-.32-.21-.84-.16-.51-.54-1.2-1.18-1.79-.63-.59-1.59-1.04-2.59-1.07-.55-.03-1.05,.07-1.55,.25-.5,.18-.96,.48-1.34,.85-.39,.37-.69,.83-.88,1.32-.1,.24-.16,.51-.21,.73-.03,.1-.04,.29-.05,.43-.02,.1,0,.25,0,.37,.02,1.03,.48,1.97,1.07,2.6Zm-1.25,71.16c.53-.51,1.17-.9,1.85-1.13,.67-.24,1.42-.28,2.05-.21,1.39,.15,2.47,.91,3.09,1.75,.64,.83,.81,1.7,.87,2.26,.01,.29,0,.51-.02,.66-.02,.15-.03,.23-.03,.23,0,0-.04-.32-.21-.84-.16-.51-.54-1.21-1.18-1.8-.63-.59-1.58-1.06-2.59-1.09-.55-.03-1.06,.08-1.56,.25-.5,.19-.96,.48-1.34,.86-.38,.37-.68,.83-.88,1.33-.1,.25-.16,.51-.21,.74-.03,.1-.03,.29-.05,.43-.02,.1,0,.25,0,.37,.02,1.04,.48,1.98,1.06,2.62,.59,.65,1.28,1.03,1.79,1.2,.51,.17,.84,.22,.84,.22,0,0-.08,0-.23,.02-.15,.02-.37,.03-.66,.01-.56-.06-1.43-.24-2.25-.89-.82-.62-1.58-1.74-1.71-3.1,0-.17-.04-.32-.03-.53,0-.16,0-.28,.02-.48,.04-.38,.11-.72,.24-1.06,.24-.68,.64-1.31,1.15-1.83Zm14.78,1.79c-1.72-1.17-3.23-2.65-4.81-4.05-1.39-1.59-2.85-3.12-4-4.85-1.31-1.62-2.16-3.5-3.16-5.2-.77-1.82-1.63-3.52-2.07-5.27-.26-.86-.51-1.69-.75-2.5-.15-.83-.29-1.63-.43-2.4-.11-.77-.31-1.49-.34-2.2-.04-.71-.07-1.38-.11-2.01-.03-.62-.06-1.21-.08-1.75,.03-.54,.07-1.04,.1-1.49,.12-1.8,.24-2.8,.24-2.8,0,0,.21,1.01,.49,2.75,.07,.44,.15,.91,.23,1.43,.13,.51,.27,1.07,.42,1.66,.29,1.18,.59,2.51,1.1,3.9,.24,.7,.48,1.43,.73,2.18,.31,.73,.64,1.48,.97,2.26,.16,.39,.33,.78,.5,1.17,.18,.39,.41,.76,.61,1.15,.43,.77,.82,1.57,1.25,2.38,1.01,1.52,1.96,3.14,3.16,4.62,1.08,1.57,2.47,2.93,3.76,4.37,1.42,1.31,2.77,2.7,4.33,3.8,1.46,1.23,3.07,2.19,4.59,3.21,.8,.43,1.6,.83,2.36,1.27,.39,.21,.76,.44,1.15,.63,.4,.17,.78,.34,1.17,.51,.77,.34,1.52,.67,2.25,.99,.75,.26,1.48,.51,2.18,.75,1.4,.53,2.7,.84,3.87,1.14,.59,.16,1.14,.3,1.65,.43,.53,.09,1.01,.18,1.45,.25,1.75,.3,2.75,.52,2.75,.52,0,0-1.02,.11-2.8,.21-.44,.03-.94,.05-1.47,.08-.54-.03-1.13-.07-1.76-.1-.64-.04-1.31-.09-2.02-.13-.72-.03-1.43-.23-2.2-.36-.77-.14-1.57-.3-2.4-.45-.81-.25-1.64-.51-2.5-.77-.43-.13-.86-.27-1.3-.41-.44-.16-.86-.36-1.3-.54-.87-.36-1.75-.77-2.65-1.18-1.68-1.01-3.55-1.89-5.16-3.21Zm29.52-4.58c-18.28-.09-33.02-14.99-32.93-33.27,.09-18.28,14.99-33.02,33.26-32.92,18.28,.09,33.02,14.99,32.93,33.26-.09,18.28-14.99,33.02-33.26,32.92Zm29.26-59.71c-2.96-3.14-6.69-6.05-11.07-8.26-4.39-2.21-9.44-3.65-14.7-4.04-5.4-.41-10.88,.35-16.14,2.22-5.24,1.88-10.13,4.95-14.15,8.91-4.01,3.98-7.13,8.84-9.06,14.06-.23,.66-.53,1.29-.7,1.96l-.54,2c-.43,1.33-.56,2.65-.81,3.97l-.17,.99-.08,1.06c-.05,.71-.09,1.41-.14,2.11l-.06,.97,.04,1.01c.02,.67,.05,1.34,.07,2,.34,5.31,1.72,10.38,3.89,14.78,2.17,4.41,5.04,8.16,8.15,11.16,3.13,2.97,6.4,5.32,9.58,6.87,.39,.21,.78,.41,1.16,.62,.39,.18,.78,.33,1.17,.49,.77,.31,1.51,.62,2.22,.91,1.45,.5,2.82,.86,4.05,1.24,1.26,.25,2.38,.47,3.36,.67,.98,.21,1.84,.22,2.53,.31,1.38,.14,2.12,.21,2.12,.21,0,0-.74,0-2.13-.02-.69-.03-1.55,.04-2.55-.08-1.01-.12-2.17-.26-3.47-.41-1.27-.29-2.69-.58-4.21-.98-.75-.25-1.53-.51-2.34-.78-.4-.14-.82-.26-1.23-.42-.4-.18-.81-.36-1.23-.55-3.4-1.38-6.99-3.58-10.41-6.56-3.43-2.98-6.68-6.81-9.14-11.46-2.48-4.62-4.21-10.03-4.66-15.77-.04-.72-.08-1.44-.12-2.16l-.06-1.09,.04-1.14c.03-.7,.06-1.41,.09-2.12l.06-1.07,.16-1.12c.24-1.49,.38-3.04,.8-4.47l.57-2.19c.18-.73,.5-1.43,.74-2.15,2.06-5.71,5.43-11.04,9.79-15.42,4.42-4.31,9.79-7.63,15.52-9.63,5.7-2.04,11.85-2.64,17.48-2.11,5.8,.52,11.18,2.3,15.77,4.83,4.62,2.52,8.42,5.8,11.36,9.26,2.95,3.46,5.12,7.07,6.45,10.48,.18,.42,.36,.83,.54,1.24,.15,.42,.27,.84,.41,1.24,.26,.81,.51,1.6,.76,2.35,.39,1.53,.66,2.96,.94,4.23,.14,1.3,.26,2.45,.37,3.46,.11,1,.03,1.87,.06,2.56,0,1.39,0,2.12,0,2.12,0,0-.07-.73-.19-2.12-.09-.69-.09-1.54-.29-2.52-.18-.98-.4-2.11-.63-3.37-.36-1.23-.72-2.6-1.2-4.06-.29-.71-.58-1.46-.89-2.23-.16-.38-.3-.78-.48-1.17-.2-.38-.4-.77-.61-1.16-1.52-3.2-3.84-6.5-6.77-9.65Zm-31.04-27.92c.59,.65,1.27,1.03,1.79,1.2,.51,.17,.84,.22,.84,.22,0,0-.08,0-.23,.02-.15,.02-.37,.03-.66,.01-.56-.06-1.43-.24-2.25-.89-.82-.62-1.58-1.73-1.71-3.09,0-.17-.04-.32-.03-.53,0-.16,0-.28,.02-.48,.04-.38,.11-.72,.24-1.06,.24-.68,.63-1.31,1.15-1.84,.53-.51,1.17-.9,1.85-1.13,.67-.24,1.42-.28,2.05-.21,1.39,.16,2.48,.92,3.09,1.75,.65,.83,.81,1.7,.87,2.26,.02,.29,0,.51-.02,.66-.02,.15-.03,.23-.03,.23,0,0-.05-.33-.21-.84-.16-.52-.54-1.21-1.18-1.8-.63-.59-1.59-1.06-2.59-1.08-.55-.03-1.05,.08-1.56,.25-.5,.18-.96,.48-1.34,.86-.39,.37-.69,.83-.88,1.33-.1,.25-.16,.51-.21,.74-.03,.1-.04,.29-.05,.43-.02,.1,0,.25,0,.37,.02,1.03,.48,1.97,1.06,2.62Zm45.21,14.19c-.63-.59-1.58-1.04-2.59-1.07-.55-.03-1.05,.08-1.55,.25-.5,.18-.96,.48-1.34,.85-.39,.37-.69,.83-.88,1.32-.1,.24-.17,.51-.21,.73-.03,.1-.03,.29-.05,.43-.02,.1,0,.25,0,.37,.02,1.03,.48,1.96,1.07,2.6,.59,.64,1.28,1.02,1.79,1.18,.51,.17,.84,.21,.84,.21,0,0-.08,0-.23,.02-.15,.02-.37,.03-.66,.01-.56-.06-1.42-.23-2.25-.88-.82-.61-1.58-1.72-1.72-3.07,0-.18-.04-.32-.03-.53,0-.16,0-.28,.02-.48,.04-.38,.11-.72,.24-1.06,.24-.67,.64-1.3,1.15-1.82,.53-.5,1.17-.88,1.85-1.11,.67-.24,1.41-.28,2.04-.21,1.38,.15,2.47,.91,3.09,1.73,.65,.82,.81,1.69,.87,2.25,.02,.29,0,.51-.02,.66-.02,.15-.03,.23-.03,.23,0,0-.04-.32-.21-.84-.16-.51-.54-1.2-1.18-1.79Zm-285.07-69.73c-.78,1.77-1.57,3.54-2.35,5.31-1.43,3.59-2.92,7.13-4.23,10.72-1.28,3.59-2.62,7.14-3.72,10.71-.56,1.78-1.17,3.54-1.69,5.31-.51,1.77-1.02,3.54-1.52,5.28-1.04,3.48-1.81,6.98-2.73,10.35-.76,3.42-1.63,6.73-2.25,10.01-1.41,6.52-2.36,12.76-3.21,18.53-.73,5.78-1.36,11.08-1.72,15.81-.39,4.72-.6,8.85-.68,12.25-.21,6.8,0,10.7,0,10.7,0,0-.1-.97-.22-2.79-.1-1.82-.26-4.5-.28-7.91-.04-3.41,.02-7.55,.23-12.3,.19-4.75,.62-10.1,1.26-15.92,.73-5.81,1.54-12.11,2.81-18.7,.55-3.31,1.35-6.67,2.04-10.13,.41-1.71,.83-3.44,1.26-5.19,.42-1.75,.86-3.51,1.38-5.27,.49-1.76,.99-3.54,1.49-5.33,.51-1.79,1.11-3.57,1.66-5.37,1.08-3.62,2.4-7.2,3.67-10.83,1.29-3.62,2.77-7.21,4.19-10.84,.78-1.78,1.55-3.58,2.33-5.37,.78-1.79,1.54-3.59,2.41-5.35,1.73-3.51,3.37-7.06,5.28-10.46,.92-1.72,1.84-3.43,2.76-5.13,.94-1.7,1.96-3.34,2.93-5,.98-1.65,1.96-3.3,2.94-4.94,1.04-1.6,2.07-3.19,3.1-4.77,1.04-1.58,2.02-3.17,3.09-4.7,1.08-1.51,2.15-3.02,3.22-4.51,1.07-1.49,2.1-2.98,3.18-4.43,1.11-1.41,2.22-2.81,3.31-4.2,1.1-1.38,2.18-2.74,3.25-4.09,1.1-1.33,2.24-2.59,3.34-3.86,1.1-1.27,2.19-2.52,3.26-3.74,.54-.61,1.07-1.22,1.6-1.82,.55-.58,1.1-1.16,1.65-1.73,2.18-2.28,4.29-4.49,6.31-6.6,2.09-2.05,4.14-3.97,6.08-5.8,.97-.91,1.92-1.8,2.84-2.67,.92-.86,1.88-1.63,2.78-2.41,1.8-1.54,3.5-2.99,5.06-4.32,.78-.67,1.53-1.31,2.25-1.92,.74-.58,1.45-1.13,2.12-1.65,5.41-4.15,8.5-6.52,8.5-6.52,0,0-2.98,2.51-8.19,6.9-.65,.55-1.34,1.12-2.06,1.73-.69,.64-1.42,1.3-2.17,2-1.51,1.39-3.14,2.89-4.89,4.49-.86,.81-1.79,1.6-2.68,2.5-.88,.89-1.8,1.81-2.73,2.76-1.88,1.88-3.84,3.86-5.9,5.92-1.97,2.15-4.01,4.39-6.13,6.7-.53,.58-1.06,1.16-1.6,1.75-.51,.61-1.03,1.23-1.55,1.85-1.03,1.25-2.09,2.51-3.16,3.79-1.06,1.29-2.16,2.56-3.22,3.91-1.03,1.36-2.08,2.74-3.14,4.14-1.06,1.39-2.14,2.79-3.22,4.21-1.05,1.44-2.07,2.93-3.12,4.41-1.05,1.49-2.1,2.99-3.16,4.5-1.04,1.52-2.01,3.11-3.02,4.68-1.01,1.58-2.02,3.16-3.04,4.75-.95,1.63-1.91,3.27-2.87,4.92-.95,1.65-1.95,3.29-2.87,4.98-.9,1.7-1.8,3.4-2.7,5.11-1.87,3.38-3.46,6.92-5.15,10.4-.88,1.73-1.65,3.51-2.43,5.28Zm236.86,345.66c-1.36,.02-3.03,.03-4.99,.05-.98,0-2.04,.01-3.17,.02-1.13-.05-2.33-.11-3.59-.17-2.54-.12-5.35-.26-8.41-.4-3.05-.31-6.35-.65-9.87-1.01-1.77-.14-3.57-.47-5.43-.75-1.86-.29-3.78-.58-5.74-.89-1.98-.26-3.97-.7-6.01-1.14-2.05-.43-4.14-.88-6.28-1.34-2.15-.41-4.28-1.09-6.49-1.64-2.2-.59-4.44-1.19-6.72-1.8-2.24-.73-4.53-1.47-6.84-2.22-1.16-.38-2.32-.76-3.5-1.14-1.18-.39-2.32-.87-3.5-1.31-2.35-.9-4.72-1.8-7.13-2.72-2.39-.96-4.75-2.06-7.18-3.11-1.21-.53-2.42-1.06-3.64-1.6-1.22-.54-2.39-1.19-3.6-1.79-2.4-1.22-4.83-2.45-7.27-3.69-9.59-5.31-19.28-11.25-28.53-18.14-9.19-6.96-18.06-14.63-26.39-22.88-8.17-8.41-15.74-17.36-22.61-26.62-1.65-2.36-3.3-4.71-4.93-7.06l-1.21-1.76-1.13-1.81c-.75-1.21-1.5-2.41-2.24-3.61-3.08-4.73-5.63-9.71-8.33-14.48-1.21-2.46-2.42-4.9-3.62-7.31-.59-1.21-1.21-2.4-1.75-3.62-.52-1.23-1.05-2.45-1.56-3.66-1.02-2.43-2.1-4.81-3.04-7.21-.9-2.42-1.78-4.8-2.65-7.16-.42-1.18-.89-2.34-1.27-3.51-.37-1.18-.74-2.35-1.11-3.52-.73-2.32-1.44-4.61-2.15-6.86-.59-2.29-1.17-4.53-1.73-6.74-.53-2.21-1.19-4.35-1.57-6.5-.43-2.14-.86-4.24-1.27-6.29-.42-2.05-.84-4.04-1.08-6.02-.29-1.97-.56-3.89-.83-5.75-.26-1.86-.57-3.67-.69-5.44-.32-3.52-.63-6.82-.91-9.87-.11-3.06-.22-5.87-.32-8.41-.05-1.27-.09-2.47-.13-3.59,.02-1.13,.04-2.19,.05-3.17,.04-1.97,.08-3.64,.11-5,.06-2.71,.09-4.16,.09-4.16,0,0,.09,1.45,.25,4.15,.08,1.35,.19,3.02,.31,4.98,.06,.98,.13,2.03,.2,3.15,.12,1.12,.24,2.31,.38,3.56,.27,2.51,.56,5.28,.88,8.31,.46,3,.95,6.25,1.48,9.72,.22,1.74,.62,3.51,.99,5.33,.37,1.83,.75,3.7,1.14,5.63,.36,1.93,.85,3.89,1.35,5.88,.5,2,1.01,4.04,1.53,6.13,.47,2.1,1.21,4.18,1.83,6.33,.65,2.14,1.31,4.32,1.99,6.53,.77,2.19,1.55,4.41,2.35,6.66,.4,1.13,.8,2.26,1.2,3.41,.41,1.14,.9,2.26,1.36,3.4,.93,2.28,1.87,4.59,2.82,6.92,1,2.32,2.12,4.61,3.2,6.96,.54,1.17,1.09,2.34,1.64,3.52,.55,1.18,1.19,2.33,1.78,3.5,1.21,2.34,2.43,4.69,3.67,7.07,5.24,9.35,11.23,18.66,17.86,27.73,6.75,8.98,14.19,17.66,22.18,25.8,8.06,8.08,16.66,15.61,25.57,22.45,9,6.73,18.25,12.81,27.55,18.15,2.36,1.26,4.71,2.5,7.03,3.74,1.17,.61,2.31,1.25,3.48,1.82,1.18,.56,2.35,1.12,3.51,1.68,2.33,1.1,4.62,2.25,6.92,3.27,2.33,.98,4.63,1.94,6.89,2.89,1.14,.46,2.25,.97,3.39,1.39,1.14,.41,2.27,.82,3.39,1.23,2.25,.82,4.46,1.63,6.64,2.42,2.21,.7,4.38,1.38,6.52,2.05,2.14,.64,4.21,1.4,6.31,1.89,2.08,.54,4.12,1.07,6.12,1.59,1.99,.53,3.94,1.04,5.87,1.41,1.92,.41,3.79,.81,5.61,1.2,1.82,.38,3.59,.8,5.32,1.04,3.47,.56,6.71,1.09,9.7,1.58,3.02,.35,5.79,.67,8.29,.96,1.25,.15,2.44,.28,3.56,.41,1.12,.08,2.18,.16,3.16,.23,1.96,.14,3.63,.26,4.98,.36,2.71,.19,4.15,.3,4.15,.3,0,0-1.45,.01-4.16,.04Zm4.61-21.47l.24-46.99,.02-3.41c.7-.02,1.41-.08,2.09-.21,1.16-.27,2.28-.64,3.29-1.19,2.02-1.07,3.65-2.69,4.69-4.38,1.09-1.79,1.62-3.64,1.76-5.39,.11-1.74-.11-3.33-.53-4.66-.41-1.33-1.01-2.4-1.56-3.22-.28-.41-.54-.77-.81-1.05-.25-.3-.47-.54-.67-.71-.39-.36-.6-.56-.6-.56,0,0,.2,.2,.58,.57,.2,.18,.41,.43,.65,.73,.26,.29,.51,.65,.78,1.06,.53,.83,1.11,1.9,1.42,3.24,.32,1.33,.48,2.9,.17,4.54-.29,1.63-1.01,3.34-2.11,4.78-1.16,1.51-2.71,2.72-4.54,3.47-1.83,.73-3.88,.96-5.87,.66-.99-.17-1.95-.48-2.88-.88-.45-.23-.91-.45-1.29-.72-.36-.19-.9-.68-1.24-.93-.75-.67-1.44-1.42-2-2.27-.53-.86-.97-1.77-1.28-2.73-.58-1.92-.65-3.99-.18-5.9,.25-.94,.59-1.89,1.07-2.68,.19-.41,.53-.83,.81-1.24,.26-.34,.59-.72,.9-1.05,1.3-1.32,2.88-2.25,4.45-2.78,1.58-.53,3.15-.6,4.51-.47,1.37,.11,2.52,.54,3.41,.95,.45,.21,.84,.41,1.16,.63,.33,.2,.61,.37,.81,.54,.42,.32,.65,.5,.65,.5,0,0-.22-.18-.64-.51-.2-.18-.47-.36-.8-.56-.31-.22-.7-.43-1.15-.65-.89-.43-2.03-.87-3.41-1.09-.48-.08-1-.12-1.53-.14l.11-22.1c.5-.02,.99-.06,1.48-.16,.81-.2,1.59-.48,2.29-.87,1.4-.77,2.5-1.94,3.17-3.11,.72-1.27,1.04-2.53,1.13-3.72,.13-2.4-.73-4.24-1.48-5.32-.38-.56-.74-.94-1-1.18-.26-.24-.4-.38-.4-.38l.39,.39c.25,.25,.6,.65,.96,1.21,.36,.56,.74,1.28,.93,2.18,.2,.89,.29,1.94,.06,3.03-.21,1.08-.73,2.22-1.48,3.12-.81,.98-1.85,1.71-3.04,2.16-1.19,.44-2.51,.55-3.77,.34-.63-.13-1.24-.33-1.83-.58-.61-.3-.99-.55-1.65-1.1-.38-.34-.89-.87-1.23-1.39-.33-.54-.62-1.12-.84-1.72-.39-1.22-.47-2.54-.2-3.79,.15-.6,.34-1.24,.63-1.76,.11-.26,.33-.56,.51-.84,.15-.22,.37-.48,.56-.71,.83-.91,1.85-1.55,2.9-1.92,1.04-.38,2.1-.44,3.01-.36,.92,.06,1.7,.35,2.3,.62,.61,.27,1.05,.56,1.33,.78,.29,.21,.44,.33,.44,.33,0,0-.15-.12-.43-.34-.28-.22-.71-.53-1.31-.82-.8-.4-1.96-.8-3.35-.87l.16-30.65c10.09,.05,15.36-3.39,15.36-3.39-.42,82.18,3.3,120.34,8.55,137.59,3.1,10.18,10.84,13.69,10.84,13.69-23.82-6.62-35.48-3.65-35.48-3.65Zm56.63-5.33c-4.74,1.25-9.62,.42-13.73-2.32-4.12-2.75-6.87-7.15-7.54-12.06-7.98-58.76-7.98-104.2-7.1-127.83,17.31-6.91,31.54-20.38,39.35-37.38,1.42-3.08,4.38-5.11,7.73-5.3,22.55-1.24,59.29-2.27,106.23-.15,9.33,.42,17.77,5.04,23.15,12.68,5.39,7.64,6.9,17.15,4.16,26.09-21.85,71.27-80.19,127.32-152.25,146.28Zm168.23-145.26c-.82,5.36-2.25,10.49-3.93,15.33-1.69,4.84-3.71,9.36-5.79,13.55-2.08,4.19-4.29,8.02-6.43,11.49-4.28,6.94-8.41,12.33-11.34,16.05-2.97,3.7-4.83,5.67-4.83,5.67,0,0,1.7-2.11,4.44-5.96,2.76-3.84,6.5-9.47,10.5-16.49,3.97-7.02,8.19-15.49,11.37-25.02,1.59-4.76,2.85-9.8,3.62-14.97,.76-5.18,.96-10.52,.32-15.76-.31-2.62-.82-5.21-1.55-7.73-.7-2.52-1.72-4.9-2.74-7.42-2.02-4.97-3.71-9.98-5.1-14.9-2.79-9.84-4.17-19.35-4.38-27.53-.25-8.18,.74-14.97,1.78-19.59,1.06-4.64,2.23-7.11,2.23-7.11,0,0-.24,.63-.58,1.85-.34,1.22-.75,3.03-1.16,5.35-.82,4.64-1.33,11.39-.81,19.43,.27,4.02,.81,8.35,1.63,12.89,.84,4.53,1.99,9.26,3.43,14.08,1.44,4.82,3.22,9.71,5.22,14.6,.99,2.41,2.1,4.96,2.87,7.64,.78,2.65,1.34,5.38,1.66,8.13,.64,5.51,.41,11.07-.41,16.41Z"/>
      <g>
        <path d="M832.04,101.26h170.3v77.39h-69.75v73.33h62.1v73.57h-62.1v162.42h-100.56V101.26Z"/>
        <path d="M1256.48,327.7c0,38.86-.92,66.36-2.75,82.52-1.83,16.16-7.56,30.93-17.2,44.31-9.63,13.38-22.65,23.65-39.05,30.81-16.4,7.16-35.51,10.75-57.32,10.75s-39.29-3.39-55.77-10.15c-16.48-6.77-29.74-16.92-39.77-30.46-10.03-13.53-16-28.26-17.91-44.19-1.91-15.92-2.87-43.79-2.87-83.6v-66.16c0-38.85,.91-66.36,2.75-82.52,1.83-16.16,7.56-30.93,17.2-44.31,9.63-13.38,22.65-23.65,39.05-30.81,16.39-7.16,35.5-10.75,57.33-10.75,20.69,0,39.29,3.39,55.77,10.15,16.48,6.77,29.74,16.92,39.77,30.46,10.03,13.53,16,28.27,17.91,44.19,1.91,15.92,2.87,43.79,2.87,83.6v66.16Zm-100.56-127.07c0-17.99-1-29.5-2.98-34.51-1.99-5.02-6.09-7.52-12.3-7.52-5.25,0-9.28,2.03-12.07,6.09-2.79,4.06-4.18,16.04-4.18,35.95v180.57c0,22.45,.91,36.31,2.75,41.56,1.83,5.25,6.09,7.88,12.78,7.88s11.23-3.02,13.14-9.07c1.91-6.05,2.87-20.46,2.87-43.23V200.63Z"/>
        <path d="M1522.57,101.26V359.71c0,29.3-.96,49.88-2.87,61.74-1.91,11.86-7.57,24.05-16.96,36.54-9.4,12.5-21.77,21.97-37.14,28.42-15.37,6.45-33.48,9.67-54.34,9.67-23.09,0-43.47-3.82-61.15-11.47-17.68-7.64-30.89-17.59-39.65-29.86-8.76-12.26-13.94-25.2-15.53-38.81-1.59-13.61-2.39-42.24-2.39-85.87V101.26h100.56V391.23c0,16.88,.91,27.67,2.74,32.37,1.83,4.7,5.53,7.04,11.11,7.04,6.37,0,10.47-2.58,12.3-7.76,1.83-5.17,2.75-17.4,2.75-36.66V101.26h100.56Z"/>
        <path d="M1561.5,101.26h71.18c47.45,0,79.57,1.83,96.37,5.49,16.8,3.66,30.5,13.02,41.09,28.07,10.59,15.05,15.88,39.05,15.88,72.01,0,30.1-3.74,50.32-11.22,60.67-7.49,10.35-22.21,16.56-44.19,18.63,19.91,4.94,33.28,11.55,40.13,19.82,6.84,8.28,11.11,15.88,12.79,22.81,1.67,6.93,2.5,26,2.5,57.21v101.99h-93.39v-128.5c0-20.7-1.63-33.52-4.9-38.45-3.26-4.93-11.82-7.4-25.68-7.4v174.36h-100.55V101.26Zm100.55,66.16v85.99c11.31,0,19.23-1.55,23.77-4.66,4.54-3.1,6.81-13.17,6.81-30.22v-21.26c0-12.26-2.19-20.3-6.57-24.13-4.38-3.82-12.39-5.73-24.01-5.73Z"/>
        <path d="M832.04,535.34h101.28c27.39,0,48.45,2.15,63.17,6.45s25.8,10.51,33.2,18.63c7.4,8.12,12.42,17.95,15.05,29.5,2.63,11.55,3.94,29.42,3.94,53.62v33.68c0,24.68-2.54,42.68-7.64,53.98-5.1,11.31-14.45,19.98-28.07,26.04-13.61,6.05-31.41,9.07-53.38,9.07h-26.99v155.73h-100.56v-386.7Zm100.56,66.16v98.41c2.87,.16,5.34,.24,7.4,.24,9.23,0,15.65-2.27,19.23-6.81,3.58-4.54,5.37-13.97,5.37-28.3v-31.77c0-13.22-2.07-21.81-6.21-25.8-4.15-3.98-12.74-5.97-25.8-5.97Z"/>
        <path d="M1239.23,535.34l57.5,386.7h-102.77l-5.4-69.51h-35.97l-6.05,69.51h-103.96l51.29-386.7h145.34Zm-53.29,248.65c-5.09-43.8-10.2-97.94-15.32-162.42-10.25,74.05-16.68,128.19-19.3,162.42h34.62Z"/>
        <path d="M1313.81,535.34h71.18c47.45,0,79.58,1.83,96.38,5.49,16.8,3.66,30.49,13.02,41.09,28.07,10.58,15.05,15.88,39.05,15.88,72.01,0,30.1-3.75,50.32-11.22,60.67-7.49,10.35-22.21,16.56-44.19,18.63,19.91,4.94,33.28,11.55,40.13,19.82,6.84,8.28,11.11,15.88,12.78,22.81,1.67,6.93,2.51,26,2.51,57.21v101.99h-93.39v-128.5c0-20.7-1.63-33.52-4.9-38.45-3.27-4.93-11.82-7.4-25.68-7.4v174.36h-100.56v-386.7Zm100.56,66.16v85.99c11.31,0,19.23-1.55,23.77-4.66,4.54-3.1,6.81-13.17,6.81-30.22v-21.26c0-12.26-2.19-20.3-6.57-24.13-4.38-3.82-12.38-5.73-24.01-5.73Z"/>
        <path d="M1816.96,535.34l-57.68,174.6,63.18,212.1h-103.91l-40.72-165.77v165.77h-100.56v-386.7h100.56v150.24l44.78-150.24h94.35Z"/>
        <path d="M2045.42,652.37h-93.4v-28.66c0-13.38-1.19-21.89-3.58-25.56-2.38-3.66-6.36-5.49-11.94-5.49-6.06,0-10.63,2.47-13.74,7.41-3.1,4.94-4.66,12.43-4.66,22.47,0,12.91,1.75,22.63,5.23,29.16,3.33,6.53,12.81,14.42,28.42,23.64,44.76,26.57,72.96,48.37,84.58,65.41,11.62,17.04,17.43,44.51,17.43,82.4,0,27.55-3.23,47.85-9.67,60.91-6.45,13.06-18.91,24-37.38,32.84-18.47,8.84-39.97,13.26-64.49,13.26-26.91,0-49.88-5.1-68.91-15.29-19.03-10.19-31.49-23.17-37.38-38.93-5.89-15.76-8.83-38.13-8.83-67.12v-25.32h93.39v47.05c0,14.49,1.32,23.81,3.94,27.95,2.63,4.14,7.28,6.21,13.97,6.21s11.66-2.63,14.93-7.88c3.26-5.25,4.89-13.05,4.89-23.41,0-22.77-3.1-37.66-9.31-44.67-6.37-7-22.06-18.71-47.05-35.11-25-16.56-41.56-28.58-49.69-36.07-8.12-7.48-14.85-17.83-20.18-31.05-5.33-13.21-8-30.1-8-50.64,0-29.62,3.78-51.27,11.35-64.97,7.56-13.69,19.78-24.4,36.66-32.13,16.87-7.72,37.26-11.59,61.15-11.59,26.11,0,48.37,4.22,66.75,12.66,18.39,8.44,30.58,19.07,36.55,31.89,5.97,12.82,8.96,34.6,8.96,65.33v15.29Z"/>
      </g>
      <g>
        <path d="M880.41,994.15h-15.04v87.12h-13.27v-87.12h-14.97v-11.19h43.29v11.19Z"/>
        <path d="M940.6,1058.04c0,16.41-7.36,24.62-22.07,24.62-16.15,0-24.23-8.15-24.23-24.46v-75.08h13.12v69.52c0,7.46,.64,12.62,1.93,15.47,1.28,2.85,4.09,4.28,8.41,4.28s7.02-1.51,8.1-4.52,1.62-8.35,1.62-16.01v-68.75h13.12v74.92Z"/>
        <path d="M1024.25,1081.26h-35.58v-98.31h34.96v11.19h-21.84v31.17h20.22v11.19h-20.22v33.87h22.46v10.88Z"/>
        <path d="M1071.85,995.61c-4.32-2.32-8.21-3.47-11.65-3.47s-6.39,1.23-8.83,3.7-3.67,5.45-3.67,8.95c0,2.47,.73,5.1,2.18,7.91,1.45,2.8,4.73,7.29,9.84,13.45s9.01,11.51,11.71,16.04c2.7,4.53,4.05,9.73,4.05,15.6,0,7.31-2.2,13.24-6.6,17.8-4.4,4.56-10.15,6.84-17.25,6.84-3.91,0-8.69-1.16-14.35-3.47v-11.81c.15,.05,.31,.13,.46,.23,.77,.57,2.39,1.43,4.86,2.59,2.47,1.16,4.88,1.74,7.25,1.74,3.86,0,7.03-1.28,9.53-3.86,2.49-2.57,3.74-5.86,3.74-9.88,0-2.78-.63-5.35-1.91-7.72-1.27-2.37-3.57-5.59-6.91-9.66l-8.86-10.9c-3.44-4.23-5.98-8.09-7.63-11.59-1.65-3.5-2.47-7.67-2.47-12.51,0-7.16,2.08-12.97,6.25-17.45s9.57-6.72,16.2-6.72c4.63,0,9.31,1.16,14.04,3.47v10.73Z"/>
        <path d="M1090.06,982.96h21.69c14.09,0,21.14,9.29,21.14,27.86,0,7.41-1.25,13.23-3.74,17.48-2.5,4.24-5.61,6.92-9.34,8.02-3.73,1.11-9.22,1.71-16.48,1.81v43.13h-13.27v-98.31Zm13.27,44.91c5.61,0,9.62-1.13,12.04-3.4,2.42-2.26,3.63-6.82,3.63-13.66s-1.06-11.58-3.17-14.04-6.27-3.7-12.5-3.7v34.8Z"/>
        <path d="M1186.98,1081.26h-12.79l-3.6-19.45h-20.81l-3.65,19.45h-12.63l21.22-98.31h10.88l21.37,98.31Zm-18.16-29.4l-8.64-46.64h-.32l-8.17,46.64h17.13Z"/>
        <path d="M1239.3,1079.57c-3.96,1.9-7.92,2.85-11.88,2.85-7.92,0-14.78-3.06-20.57-9.19-5.79-6.13-8.68-18.92-8.68-38.38,0-21.11,2.89-35.32,8.68-42.63,5.79-7.31,12.8-10.97,21.03-10.97,3.08,0,6.89,.51,11.42,1.54v12.04c-2.99-1.18-5.79-1.78-8.41-1.78-5.14,0-9.54,2.62-13.2,7.84s-5.48,15.54-5.48,30.93c0,9.17,.4,16.34,1.19,21.51,.8,5.17,2.64,9.29,5.52,12.36s6.51,4.6,10.88,4.6c2.57,0,5.74-.8,9.49-2.39v11.65Z"/>
        <path d="M1258.28,982.96h13.27v98.31h-13.27v-98.31Z"/>
        <path d="M1291.77,1031.84c0-21.33,2.1-35.13,6.29-41.41,4.19-6.27,11.1-9.41,20.72-9.41,11.01,0,18.33,3.51,21.95,10.53,3.63,7.02,5.44,19.65,5.44,37.9,0,16.35-.81,27.68-2.43,34-1.62,6.32-4.43,10.97-8.41,13.96s-9.4,4.47-16.24,4.47-12.45-1.38-16.2-4.12c-3.76-2.75-6.55-7.21-8.38-13.38-1.82-6.17-2.74-17.01-2.74-32.54Zm40.51,.77c0-18.66-1.1-30.18-3.29-34.57-2.19-4.39-5.48-6.59-9.87-6.59-5.16,0-8.69,2.63-10.6,7.9-1.91,5.27-2.87,14.14-2.87,26.63v5.4c0,13.93,.77,24.09,2.32,30.49,1.55,6.4,5.26,9.6,11.14,9.6,3.61,0,6.71-1.8,9.29-5.39,2.58-3.6,3.87-13.54,3.87-29.84v-3.62Z"/>
        <path d="M1443.86,1046.46c0,11.32-1.93,20.1-5.79,26.35-3.86,6.25-10.68,9.38-20.45,9.38-8.75,0-15.07-3.23-18.98-9.68-3.91-6.46-5.86-18.87-5.86-37.23,0-2.16,.23-7.91,.69-17.25,.46-9.34,1.15-15.66,2.04-18.98,.9-3.32,2.41-6.4,4.52-9.26s4.78-4.99,8.03-6.4c3.24-1.41,7.05-2.12,11.42-2.12,6.17,0,11.5,1.87,15.98,5.59,4.47,3.73,6.94,8.66,7.4,14.78l-12.5,4.55c-1.03-9.46-4.65-14.2-10.88-14.2-4.78,0-8.12,2.46-9.99,7.37-1.88,4.91-2.82,13.06-2.82,24.42v5.02c0,6.59,.21,12.87,.62,18.87s.8,10.38,1.16,13.16c.36,2.78,1.11,4.99,2.24,6.63,1.13,1.65,2.32,2.75,3.58,3.32,1.26,.57,2.74,.85,4.44,.85,3.19,0,5.66-.98,7.41-2.93s2.96-4.77,3.63-8.45c.67-3.68,1-9.94,1-18.79h-12.04v-11.57h25.16v16.59Z"/>
        <path d="M1510.07,1081.26h-12.79l-3.6-19.45h-20.81l-3.65,19.45h-12.63l21.22-98.31h10.88l21.37,98.31Zm-18.16-29.4l-8.64-46.64h-.32l-8.17,46.64h17.13Z"/>
        <path d="M1568.94,1081.26h-13.77l-15.4-46.14h-1.16v46.14h-13.27v-98.31h18.36c14.97,0,22.46,8.38,22.46,25.15,0,7.62-1.11,13.35-3.32,17.21s-5.81,6.76-10.8,8.72l16.9,47.22Zm-30.32-55.17c5.14-.1,8.86-1.32,11.15-3.67,2.29-2.34,3.43-6.6,3.43-12.77s-1.04-10.13-3.13-12.66c-2.08-2.52-5.65-3.78-10.69-3.78h-.77v32.87Z"/>
        <path d="M1633.69,1081.26h-12.79l-3.6-19.45h-20.81l-3.65,19.45h-12.63l21.22-98.31h10.88l21.37,98.31Zm-18.16-29.4l-8.64-46.64h-.32l-8.17,46.64h17.13Z"/>
        <path d="M1695.73,1081.26h-10.42l-25.08-67.47-.3,.03v67.44h-11.89v-98.31h10.57l25.16,67.46,.31,.06v-67.52h11.65v98.31Z"/>
        <path d="M1752.67,994.15h-15.04v87.12h-13.27v-87.12h-14.97v-11.19h43.29v11.19Z"/>
        <path d="M1768.19,982.96h13.27v98.31h-13.27v-98.31Z"/>
        <path d="M1845.12,982.96l-31.23,87.27h28.22v11.03h-44.37l31.09-87.12h-27.31v-11.19h43.6Z"/>
        <path d="M1910.48,1081.26h-12.79l-3.6-19.45h-20.81l-3.65,19.45h-12.63l21.22-98.31h10.88l21.37,98.31Zm-18.16-29.4l-8.64-46.64h-.32l-8.17,46.64h17.13Z"/>
        <path d="M1926.52,982.96h19.14c9.05,0,16.19,3.41,21.41,10.22,5.22,6.82,7.83,19.64,7.83,38.47s-2.29,30.97-6.86,38.43c-4.58,7.46-12.81,11.19-24.7,11.19h-16.82v-98.31Zm13.27,10.11v78.24c5.56,0,9.77-1.03,12.66-3.09,2.88-2.06,5.03-5.89,6.44-11.5,1.41-5.61,2.13-14.02,2.13-25.23,0-14.3-1.32-24.28-3.97-29.94-2.65-5.66-7.81-8.49-15.47-8.49h-1.78Z"/>
        <path d="M1991.18,1031.84c0-21.33,2.1-35.13,6.29-41.41,4.19-6.27,11.1-9.41,20.72-9.41,11.01,0,18.33,3.51,21.95,10.53,3.63,7.02,5.44,19.65,5.44,37.9,0,16.35-.81,27.68-2.43,34-1.62,6.32-4.43,10.97-8.41,13.96s-9.4,4.47-16.24,4.47-12.45-1.38-16.2-4.12c-3.76-2.75-6.55-7.21-8.38-13.38-1.82-6.17-2.74-17.01-2.74-32.54Zm40.51,.77c0-18.66-1.1-30.18-3.29-34.57-2.19-4.39-5.48-6.59-9.87-6.59-5.16,0-8.69,2.63-10.6,7.9-1.91,5.27-2.87,14.14-2.87,26.63v5.4c0,13.93,.77,24.09,2.32,30.49s5.26,9.6,11.14,9.6c3.61,0,6.71-1.8,9.29-5.39,2.58-3.6,3.87-13.54,3.87-29.84v-3.62Z"/>
      </g>
    </g>
  </g>
</svg>